<svg xmlns="http://www.w3.org/2000/svg" xmlns:xlink="http://www.w3.org/1999/xlink" width="1440" height="900" viewBox="0 0 1440 900">
  <defs>
    <clipPath id="clip-path">
      <rect id="Rectangle_437" data-name="Rectangle 437" width="162" height="45" transform="translate(385 421)" fill="none"/>
    </clipPath>
    <clipPath id="clip-path-2">
      <rect id="Rectangle_438" data-name="Rectangle 438" width="300" height="110" transform="translate(50 140)" fill="none"/>
    </clipPath>
    <clipPath id="clip-path-3">
      <rect id="Rectangle_439" data-name="Rectangle 439" width="251" height="91" transform="translate(1137.5 208.5)" fill="none"/>
    </clipPath>
    <clipPath id="clip-path-4">
      <rect id="Rectangle_440" data-name="Rectangle 440" width="184" height="68" transform="translate(891 336)" fill="none"/>
    </clipPath>
    <clipPath id="clip-banner-2">
      <rect width="1440" height="900"/>
    </clipPath>
  </defs>
  <g id="banner-2" clip-path="url(#clip-banner-2)">
    <g id="Group_449" data-name="Group 449" transform="translate(0 -10)">
      <g id="Group_448" data-name="Group 448" clip-path="url(#clip-path)">
        <g id="Group_447" data-name="Group 447">
          <circle id="Ellipse_93" data-name="Ellipse 93" cx="32.5" cy="32.5" r="32.5" transform="translate(438 421)" fill="#f8f9fa"/>
          <circle id="Ellipse_94" data-name="Ellipse 94" cx="24" cy="24" r="24" transform="translate(418 439)" fill="#f8f9fa"/>
          <circle id="Ellipse_95" data-name="Ellipse 95" cx="29.5" cy="29.5" r="29.5" transform="translate(385 458)" fill="#f8f9fa"/>
          <circle id="Ellipse_96" data-name="Ellipse 96" cx="18" cy="18" r="18" transform="translate(489 447)" fill="#f8f9fa"/>
          <circle id="Ellipse_97" data-name="Ellipse 97" cx="20" cy="20" r="20" transform="translate(507 456)" fill="#f8f9fa"/>
        </g>
      </g>
    </g>
    <g id="Group_452" data-name="Group 452">
      <g id="Group_451" data-name="Group 451" clip-path="url(#clip-path-2)">
        <g id="Group_450" data-name="Group 450">
          <circle id="Ellipse_98" data-name="Ellipse 98" cx="59" cy="59" r="59" transform="translate(121 140)" fill="#f8f9fa"/>
          <circle id="Ellipse_99" data-name="Ellipse 99" cx="35.5" cy="35.5" r="35.5" transform="translate(87 196)" fill="#f8f9fa"/>
          <circle id="Ellipse_100" data-name="Ellipse 100" cx="34" cy="34" r="34" transform="translate(51 231)" fill="#f8f9fa"/>
          <circle id="Ellipse_101" data-name="Ellipse 101" cx="43.5" cy="43.5" r="43.5" transform="translate(202 184)" fill="#f8f9fa"/>
          <circle id="Ellipse_102" data-name="Ellipse 102" cx="58" cy="58" r="58" transform="translate(245 227)" fill="#f8f9fa"/>
        </g>
      </g>
    </g>
    <g id="Group_455" data-name="Group 455" transform="translate(-0.5 -0.5)">
      <g id="Group_454" data-name="Group 454" clip-path="url(#clip-path-3)">
        <g id="Group_453" data-name="Group 453">
          <circle id="Ellipse_103" data-name="Ellipse 103" cx="50" cy="50" r="50" transform="translate(1228.75 208.5)" fill="#f8f9fa"/>
          <circle id="Ellipse_104" data-name="Ellipse 104" cx="37.25" cy="37.25" r="37.25" transform="translate(1189 246)" fill="#f8f9fa"/>
          <circle id="Ellipse_105" data-name="Ellipse 105" cx="27.75" cy="27.75" r="27.75" transform="translate(1303.5 250)" fill="#f8f9fa"/>
          <circle id="Ellipse_106" data-name="Ellipse 106" cx="35.25" cy="35.25" r="35.25" transform="translate(1317.5 273.5)" fill="#f8f9fa"/>
          <circle id="Ellipse_107" data-name="Ellipse 107" cx="45.25" cy="45.25" r="45.25" transform="translate(1138 283)" fill="#f8f9fa"/>
        </g>
      </g>
    </g>
    <g id="Group_457" data-name="Group 457">
      <g id="Group_456" data-name="Group 456" clip-path="url(#clip-path-4)">
        <circle id="Ellipse_108" data-name="Ellipse 108" cx="40.75" cy="40.75" r="40.75" transform="translate(943 335.5)" fill="#f8f9fa"/>
        <circle id="Ellipse_109" data-name="Ellipse 109" cx="25.25" cy="25.25" r="25.25" transform="translate(912.5 361.5)" fill="#f8f9fa"/>
        <circle id="Ellipse_110" data-name="Ellipse 110" cx="27.75" cy="27.75" r="27.75" transform="translate(887 391)" fill="#f8f9fa"/>
        <circle id="Ellipse_111" data-name="Ellipse 111" cx="20.75" cy="20.75" r="20.75" transform="translate(1005 367.5)" fill="#f8f9fa"/>
        <circle id="Ellipse_112" data-name="Ellipse 112" cx="32" cy="32" r="32" transform="translate(1011.5 388.5)" fill="#f8f9fa"/>
      </g>
    </g>
  </g>
</svg>
