<svg xmlns="http://www.w3.org/2000/svg" xmlns:xlink="http://www.w3.org/1999/xlink" width="1440" height="900" viewBox="0 0 1440 900">
  <defs>
    <clipPath id="clip-banner-4">
      <rect width="1440" height="900"/>
    </clipPath>
  </defs>
  <g id="banner-4" clip-path="url(#clip-banner-4)">
    <g id="高鐵">
      <g id="Group_438" data-name="Group 438">
        <g id="Group_437" data-name="Group 437">
          <path id="Path_25" data-name="Path 25" d="M1044.386,600H341.618a3.506,3.506,0,0,1-3.232-5.065l5.466-10.587A36.275,36.275,0,0,1,376.173,565h668.213a3.558,3.558,0,0,1,3.614,3.5v28A3.558,3.558,0,0,1,1044.386,600Z" fill="#fff"/>
          <path id="Path_26" data-name="Path 26" d="M354.781,587.879l9.507-14.939a1.75,1.75,0,0,0-1.476-2.69h-5.47a35.563,35.563,0,0,0-13.428,14.1l-2.689,5.152h10.6A3.5,3.5,0,0,0,354.781,587.879Z" fill="#bec3c8"/>
          <rect id="Rectangle_363" data-name="Rectangle 363" width="7" height="8.75" rx="1" transform="translate(390.5 575.5)" fill="#eceef0"/>
          <rect id="Rectangle_364" data-name="Rectangle 364" width="7" height="8.75" rx="1" transform="translate(416.75 575.5)" fill="#eceef0"/>
          <rect id="Rectangle_365" data-name="Rectangle 365" width="7" height="8.75" rx="1" transform="translate(403.625 575.5)" fill="#eceef0"/>
          <rect id="Rectangle_366" data-name="Rectangle 366" width="7" height="8.75" rx="1" transform="translate(429.875 575.5)" fill="#eceef0"/>
          <rect id="Rectangle_367" data-name="Rectangle 367" width="7" height="8.75" rx="1" transform="translate(443 575.5)" fill="#eceef0"/>
          <rect id="Rectangle_368" data-name="Rectangle 368" width="7" height="8.75" rx="1" transform="translate(456.125 575.5)" fill="#eceef0"/>
          <rect id="Rectangle_369" data-name="Rectangle 369" width="7" height="8.75" rx="1" transform="translate(469.25 575.5)" fill="#eceef0"/>
          <rect id="Rectangle_370" data-name="Rectangle 370" width="7" height="8.75" rx="1" transform="translate(482.375 575.5)" fill="#eceef0"/>
          <rect id="Rectangle_371" data-name="Rectangle 371" width="7" height="8.75" rx="1" transform="translate(495.5 575.5)" fill="#eceef0"/>
          <rect id="Rectangle_372" data-name="Rectangle 372" width="7" height="8.75" rx="1" transform="translate(523.5 575.5)" fill="#eceef0"/>
          <rect id="Rectangle_373" data-name="Rectangle 373" width="7" height="8.75" rx="1" transform="translate(536.625 575.5)" fill="#eceef0"/>
          <rect id="Rectangle_374" data-name="Rectangle 374" width="7" height="8.75" rx="1" transform="translate(549.75 575.5)" fill="#eceef0"/>
          <rect id="Rectangle_375" data-name="Rectangle 375" width="7" height="8.75" rx="1" transform="translate(562.875 575.5)" fill="#eceef0"/>
          <rect id="Rectangle_376" data-name="Rectangle 376" width="7" height="8.75" rx="1" transform="translate(576 575.5)" fill="#eceef0"/>
          <rect id="Rectangle_377" data-name="Rectangle 377" width="7" height="8.75" rx="1" transform="translate(589.125 575.5)" fill="#eceef0"/>
          <rect id="Rectangle_378" data-name="Rectangle 378" width="7" height="8.75" rx="1" transform="translate(602.25 575.5)" fill="#eceef0"/>
          <rect id="Rectangle_379" data-name="Rectangle 379" width="7" height="8.75" rx="1" transform="translate(615.375 575.5)" fill="#eceef0"/>
          <rect id="Rectangle_380" data-name="Rectangle 380" width="7" height="8.75" rx="1" transform="translate(628.5 575.5)" fill="#eceef0"/>
          <rect id="Rectangle_381" data-name="Rectangle 381" width="7" height="8.75" rx="1" transform="translate(656.5 575.5)" fill="#eceef0"/>
          <rect id="Rectangle_382" data-name="Rectangle 382" width="7" height="8.75" rx="1" transform="translate(682.75 575.5)" fill="#eceef0"/>
          <rect id="Rectangle_383" data-name="Rectangle 383" width="7" height="8.75" rx="1" transform="translate(669.625 575.5)" fill="#eceef0"/>
          <rect id="Rectangle_384" data-name="Rectangle 384" width="7" height="8.75" rx="1" transform="translate(695.875 575.5)" fill="#eceef0"/>
          <rect id="Rectangle_385" data-name="Rectangle 385" width="7" height="8.75" rx="1" transform="translate(709 575.5)" fill="#eceef0"/>
          <rect id="Rectangle_386" data-name="Rectangle 386" width="7" height="8.75" rx="1" transform="translate(722.125 575.5)" fill="#eceef0"/>
          <rect id="Rectangle_387" data-name="Rectangle 387" width="7" height="8.75" rx="1" transform="translate(735.25 575.5)" fill="#eceef0"/>
          <rect id="Rectangle_388" data-name="Rectangle 388" width="7" height="8.75" rx="1" transform="translate(748.375 575.5)" fill="#eceef0"/>
          <rect id="Rectangle_389" data-name="Rectangle 389" width="7" height="8.75" rx="1" transform="translate(761.5 575.5)" fill="#eceef0"/>
          <rect id="Rectangle_390" data-name="Rectangle 390" width="7" height="8.75" rx="1" transform="translate(789.5 575.5)" fill="#eceef0"/>
          <rect id="Rectangle_391" data-name="Rectangle 391" width="7" height="8.75" rx="1" transform="translate(802.625 575.5)" fill="#eceef0"/>
          <rect id="Rectangle_392" data-name="Rectangle 392" width="7" height="8.75" rx="1" transform="translate(815.75 575.5)" fill="#eceef0"/>
          <rect id="Rectangle_393" data-name="Rectangle 393" width="7" height="8.75" rx="1" transform="translate(828.875 575.5)" fill="#eceef0"/>
          <rect id="Rectangle_394" data-name="Rectangle 394" width="7" height="8.75" rx="1" transform="translate(842 575.5)" fill="#eceef0"/>
          <rect id="Rectangle_395" data-name="Rectangle 395" width="7" height="8.75" rx="1" transform="translate(855.125 575.5)" fill="#eceef0"/>
          <rect id="Rectangle_396" data-name="Rectangle 396" width="7" height="8.75" rx="1" transform="translate(868.25 575.5)" fill="#eceef0"/>
          <rect id="Rectangle_397" data-name="Rectangle 397" width="7" height="8.75" rx="1" transform="translate(881.375 575.5)" fill="#eceef0"/>
          <rect id="Rectangle_398" data-name="Rectangle 398" width="7" height="8.75" rx="1" transform="translate(894.5 575.5)" fill="#eceef0"/>
          <rect id="Rectangle_399" data-name="Rectangle 399" width="7" height="8.75" rx="1" transform="translate(922.5 575.5)" fill="#eceef0"/>
          <rect id="Rectangle_400" data-name="Rectangle 400" width="7" height="8.75" rx="1" transform="translate(935.625 575.5)" fill="#eceef0"/>
          <rect id="Rectangle_401" data-name="Rectangle 401" width="7" height="8.75" rx="1" transform="translate(948.75 575.5)" fill="#eceef0"/>
          <rect id="Rectangle_402" data-name="Rectangle 402" width="7" height="8.75" rx="1" transform="translate(961.875 575.5)" fill="#eceef0"/>
          <rect id="Rectangle_403" data-name="Rectangle 403" width="7" height="8.75" rx="1" transform="translate(975 575.5)" fill="#eceef0"/>
          <rect id="Rectangle_404" data-name="Rectangle 404" width="7" height="8.75" rx="1" transform="translate(988.125 575.5)" fill="#eceef0"/>
          <rect id="Rectangle_405" data-name="Rectangle 405" width="7" height="8.75" rx="1" transform="translate(1001.25 575.5)" fill="#eceef0"/>
          <rect id="Rectangle_406" data-name="Rectangle 406" width="7" height="8.75" rx="1" transform="translate(1014.375 575.5)" fill="#eceef0"/>
          <rect id="Rectangle_407" data-name="Rectangle 407" width="7" height="8.75" rx="1" transform="translate(1027.5 575.5)" fill="#eceef0"/>
          <line id="Line_34" data-name="Line 34" y2="35" transform="translate(513 565)" fill="none" stroke="#eceef0" stroke-miterlimit="10" stroke-width="1.75"/>
          <line id="Line_35" data-name="Line 35" y2="35" transform="translate(646 565)" fill="none" stroke="#eceef0" stroke-miterlimit="10" stroke-width="1.75"/>
          <line id="Line_36" data-name="Line 36" y2="35" transform="translate(779 565)" fill="none" stroke="#eceef0" stroke-miterlimit="10" stroke-width="1.75"/>
          <line id="Line_37" data-name="Line 37" y2="35" transform="translate(912 565)" fill="none" stroke="#eceef0" stroke-miterlimit="10" stroke-width="1.75"/>
          <path id="Path_27" data-name="Path 27" d="M1048,596.5V595H338.358a3.5,3.5,0,0,0,3.26,5h702.768A3.558,3.558,0,0,0,1048,596.5Z" fill="#ff8c34" opacity="0.4"/>
        </g>
      </g>
    </g>
  </g>
</svg>
