<svg xmlns="http://www.w3.org/2000/svg" xmlns:xlink="http://www.w3.org/1999/xlink" width="1440" height="900" viewBox="0 0 1440 900">
  <defs>
    <linearGradient id="linear-gradient" x1="0.5" x2="0.5" y2="1" gradientUnits="objectBoundingBox">
      <stop offset="0" stop-color="#eceef0"/>
      <stop offset="0.305" stop-color="#f9f9fa" stop-opacity="0.333"/>
      <stop offset="1" stop-color="#fff" stop-opacity="0"/>
    </linearGradient>
    <linearGradient id="linear-gradient-2" x1="0.5" x2="0.5" y2="1" gradientUnits="objectBoundingBox">
      <stop offset="0" stop-color="#f8f9fa"/>
      <stop offset="1" stop-color="#f8f9fa" stop-opacity="0.502"/>
    </linearGradient>
    <linearGradient id="linear-gradient-3" x1="0.5" y1="-0.013" x2="0.5" y2="1.012" gradientUnits="objectBoundingBox">
      <stop offset="0" stop-color="#eceef2"/>
      <stop offset="1" stop-color="#eceef2" stop-opacity="0"/>
    </linearGradient>
    <linearGradient id="linear-gradient-4" x1="0.5" x2="0.5" y2="1" gradientUnits="objectBoundingBox">
      <stop offset="0" stop-color="#eceef0"/>
      <stop offset="1" stop-color="#d8dade"/>
    </linearGradient>
    <linearGradient id="linear-gradient-5" x1="0.5" x2="0.5" y2="0.99" gradientUnits="objectBoundingBox">
      <stop offset="0" stop-color="#eceef0"/>
      <stop offset="1" stop-color="#eceef0" stop-opacity="0"/>
    </linearGradient>
    <clipPath id="clip-path">
      <rect id="Rectangle_437" data-name="Rectangle 437" width="162" height="45" transform="translate(385 421)" fill="none"/>
    </clipPath>
    <clipPath id="clip-path-2">
      <rect id="Rectangle_438" data-name="Rectangle 438" width="300" height="110" transform="translate(50 140)" fill="none"/>
    </clipPath>
    <clipPath id="clip-path-3">
      <rect id="Rectangle_439" data-name="Rectangle 439" width="251" height="91" transform="translate(1137.5 208.5)" fill="none"/>
    </clipPath>
    <clipPath id="clip-path-4">
      <rect id="Rectangle_440" data-name="Rectangle 440" width="184" height="68" transform="translate(891 336)" fill="none"/>
    </clipPath>
    <linearGradient id="linear-gradient-6" x1="0.5" x2="0.5" y2="1.64" gradientUnits="objectBoundingBox">
      <stop offset="0" stop-color="#eceef0"/>
      <stop offset="1" stop-color="#eceef0" stop-opacity="0.2"/>
    </linearGradient>
    <clipPath id="clip-banner-1">
      <rect width="1440" height="900"/>
    </clipPath>
  </defs>
  <g id="banner-1" clip-path="url(#clip-banner-1)">
    <rect id="Rectangle_449" data-name="Rectangle 449" width="1440" height="100" transform="translate(0 600)" fill="url(#linear-gradient)"/>
    <g id="山" transform="translate(0 0.726)">
      <path id="Path_24" data-name="Path 24" d="M1440,503.828c-107-81.526-142,30.361-276,40.763s-143-92.463-297-15.908c-92.2,45.832-240-10.936-312-28.832-135.976-33.8-214,86.5-354,27.838C77.394,475.9,0,517.747,0,517.747v81.526H1440Z" transform="translate(0 0)" fill="url(#linear-gradient-2)"/>
    </g>
    <g id="高鐵">
      <g id="Group_438" data-name="Group 438">
        <g id="Group_437" data-name="Group 437">
          <path id="Path_25" data-name="Path 25" d="M1044.386,600H341.618a3.506,3.506,0,0,1-3.232-5.065l5.466-10.587A36.275,36.275,0,0,1,376.173,565h668.213a3.558,3.558,0,0,1,3.614,3.5v28A3.558,3.558,0,0,1,1044.386,600Z" fill="#fff"/>
          <path id="Path_26" data-name="Path 26" d="M354.781,587.879l9.507-14.939a1.75,1.75,0,0,0-1.476-2.69h-5.47a35.563,35.563,0,0,0-13.428,14.1l-2.689,5.152h10.6A3.5,3.5,0,0,0,354.781,587.879Z" fill="#bec3c8"/>
          <rect id="Rectangle_363" data-name="Rectangle 363" width="7" height="8.75" rx="1" transform="translate(390.5 575.5)" fill="#eceef0"/>
          <rect id="Rectangle_364" data-name="Rectangle 364" width="7" height="8.75" rx="1" transform="translate(416.75 575.5)" fill="#eceef0"/>
          <rect id="Rectangle_365" data-name="Rectangle 365" width="7" height="8.75" rx="1" transform="translate(403.625 575.5)" fill="#eceef0"/>
          <rect id="Rectangle_366" data-name="Rectangle 366" width="7" height="8.75" rx="1" transform="translate(429.875 575.5)" fill="#eceef0"/>
          <rect id="Rectangle_367" data-name="Rectangle 367" width="7" height="8.75" rx="1" transform="translate(443 575.5)" fill="#eceef0"/>
          <rect id="Rectangle_368" data-name="Rectangle 368" width="7" height="8.75" rx="1" transform="translate(456.125 575.5)" fill="#eceef0"/>
          <rect id="Rectangle_369" data-name="Rectangle 369" width="7" height="8.75" rx="1" transform="translate(469.25 575.5)" fill="#eceef0"/>
          <rect id="Rectangle_370" data-name="Rectangle 370" width="7" height="8.75" rx="1" transform="translate(482.375 575.5)" fill="#eceef0"/>
          <rect id="Rectangle_371" data-name="Rectangle 371" width="7" height="8.75" rx="1" transform="translate(495.5 575.5)" fill="#eceef0"/>
          <rect id="Rectangle_372" data-name="Rectangle 372" width="7" height="8.75" rx="1" transform="translate(523.5 575.5)" fill="#eceef0"/>
          <rect id="Rectangle_373" data-name="Rectangle 373" width="7" height="8.75" rx="1" transform="translate(536.625 575.5)" fill="#eceef0"/>
          <rect id="Rectangle_374" data-name="Rectangle 374" width="7" height="8.75" rx="1" transform="translate(549.75 575.5)" fill="#eceef0"/>
          <rect id="Rectangle_375" data-name="Rectangle 375" width="7" height="8.75" rx="1" transform="translate(562.875 575.5)" fill="#eceef0"/>
          <rect id="Rectangle_376" data-name="Rectangle 376" width="7" height="8.75" rx="1" transform="translate(576 575.5)" fill="#eceef0"/>
          <rect id="Rectangle_377" data-name="Rectangle 377" width="7" height="8.75" rx="1" transform="translate(589.125 575.5)" fill="#eceef0"/>
          <rect id="Rectangle_378" data-name="Rectangle 378" width="7" height="8.75" rx="1" transform="translate(602.25 575.5)" fill="#eceef0"/>
          <rect id="Rectangle_379" data-name="Rectangle 379" width="7" height="8.75" rx="1" transform="translate(615.375 575.5)" fill="#eceef0"/>
          <rect id="Rectangle_380" data-name="Rectangle 380" width="7" height="8.75" rx="1" transform="translate(628.5 575.5)" fill="#eceef0"/>
          <rect id="Rectangle_381" data-name="Rectangle 381" width="7" height="8.75" rx="1" transform="translate(656.5 575.5)" fill="#eceef0"/>
          <rect id="Rectangle_382" data-name="Rectangle 382" width="7" height="8.75" rx="1" transform="translate(682.75 575.5)" fill="#eceef0"/>
          <rect id="Rectangle_383" data-name="Rectangle 383" width="7" height="8.75" rx="1" transform="translate(669.625 575.5)" fill="#eceef0"/>
          <rect id="Rectangle_384" data-name="Rectangle 384" width="7" height="8.75" rx="1" transform="translate(695.875 575.5)" fill="#eceef0"/>
          <rect id="Rectangle_385" data-name="Rectangle 385" width="7" height="8.75" rx="1" transform="translate(709 575.5)" fill="#eceef0"/>
          <rect id="Rectangle_386" data-name="Rectangle 386" width="7" height="8.75" rx="1" transform="translate(722.125 575.5)" fill="#eceef0"/>
          <rect id="Rectangle_387" data-name="Rectangle 387" width="7" height="8.75" rx="1" transform="translate(735.25 575.5)" fill="#eceef0"/>
          <rect id="Rectangle_388" data-name="Rectangle 388" width="7" height="8.75" rx="1" transform="translate(748.375 575.5)" fill="#eceef0"/>
          <rect id="Rectangle_389" data-name="Rectangle 389" width="7" height="8.75" rx="1" transform="translate(761.5 575.5)" fill="#eceef0"/>
          <rect id="Rectangle_390" data-name="Rectangle 390" width="7" height="8.75" rx="1" transform="translate(789.5 575.5)" fill="#eceef0"/>
          <rect id="Rectangle_391" data-name="Rectangle 391" width="7" height="8.75" rx="1" transform="translate(802.625 575.5)" fill="#eceef0"/>
          <rect id="Rectangle_392" data-name="Rectangle 392" width="7" height="8.75" rx="1" transform="translate(815.75 575.5)" fill="#eceef0"/>
          <rect id="Rectangle_393" data-name="Rectangle 393" width="7" height="8.75" rx="1" transform="translate(828.875 575.5)" fill="#eceef0"/>
          <rect id="Rectangle_394" data-name="Rectangle 394" width="7" height="8.75" rx="1" transform="translate(842 575.5)" fill="#eceef0"/>
          <rect id="Rectangle_395" data-name="Rectangle 395" width="7" height="8.75" rx="1" transform="translate(855.125 575.5)" fill="#eceef0"/>
          <rect id="Rectangle_396" data-name="Rectangle 396" width="7" height="8.75" rx="1" transform="translate(868.25 575.5)" fill="#eceef0"/>
          <rect id="Rectangle_397" data-name="Rectangle 397" width="7" height="8.75" rx="1" transform="translate(881.375 575.5)" fill="#eceef0"/>
          <rect id="Rectangle_398" data-name="Rectangle 398" width="7" height="8.75" rx="1" transform="translate(894.5 575.5)" fill="#eceef0"/>
          <rect id="Rectangle_399" data-name="Rectangle 399" width="7" height="8.75" rx="1" transform="translate(922.5 575.5)" fill="#eceef0"/>
          <rect id="Rectangle_400" data-name="Rectangle 400" width="7" height="8.75" rx="1" transform="translate(935.625 575.5)" fill="#eceef0"/>
          <rect id="Rectangle_401" data-name="Rectangle 401" width="7" height="8.75" rx="1" transform="translate(948.75 575.5)" fill="#eceef0"/>
          <rect id="Rectangle_402" data-name="Rectangle 402" width="7" height="8.75" rx="1" transform="translate(961.875 575.5)" fill="#eceef0"/>
          <rect id="Rectangle_403" data-name="Rectangle 403" width="7" height="8.75" rx="1" transform="translate(975 575.5)" fill="#eceef0"/>
          <rect id="Rectangle_404" data-name="Rectangle 404" width="7" height="8.75" rx="1" transform="translate(988.125 575.5)" fill="#eceef0"/>
          <rect id="Rectangle_405" data-name="Rectangle 405" width="7" height="8.75" rx="1" transform="translate(1001.25 575.5)" fill="#eceef0"/>
          <rect id="Rectangle_406" data-name="Rectangle 406" width="7" height="8.75" rx="1" transform="translate(1014.375 575.5)" fill="#eceef0"/>
          <rect id="Rectangle_407" data-name="Rectangle 407" width="7" height="8.75" rx="1" transform="translate(1027.5 575.5)" fill="#eceef0"/>
          <line id="Line_34" data-name="Line 34" y2="35" transform="translate(513 565)" fill="none" stroke="#eceef0" stroke-miterlimit="10" stroke-width="1.75"/>
          <line id="Line_35" data-name="Line 35" y2="35" transform="translate(646 565)" fill="none" stroke="#eceef0" stroke-miterlimit="10" stroke-width="1.75"/>
          <line id="Line_36" data-name="Line 36" y2="35" transform="translate(779 565)" fill="none" stroke="#eceef0" stroke-miterlimit="10" stroke-width="1.75"/>
          <line id="Line_37" data-name="Line 37" y2="35" transform="translate(912 565)" fill="none" stroke="#eceef0" stroke-miterlimit="10" stroke-width="1.75"/>
          <path id="Path_27" data-name="Path 27" d="M1048,596.5V595H338.358a3.5,3.5,0,0,0,3.26,5h702.768A3.558,3.558,0,0,0,1048,596.5Z" fill="#ff8c34" opacity="0.4"/>
        </g>
      </g>
    </g>
    <g id="tree">
      <line id="Line_38" data-name="Line 38" y2="34" transform="translate(49 576)" fill="none" stroke="#d8dade" stroke-miterlimit="10" stroke-width="1.225"/>
      <rect id="Rectangle_408" data-name="Rectangle 408" width="20" height="30" rx="10" transform="translate(39 563)" fill="#e2e4e8"/>
      <line id="Line_39" data-name="Line 39" y2="34" transform="translate(1424 576)" fill="none" stroke="#d8dade" stroke-miterlimit="10" stroke-width="1.225"/>
      <rect id="Rectangle_409" data-name="Rectangle 409" width="20" height="30" rx="10" transform="translate(1414 563)" fill="#5cb876"/>
      <line id="Line_40" data-name="Line 40" y2="34" transform="translate(446 576)" fill="#eceef0" stroke="#d8dade" stroke-miterlimit="10" stroke-width="1.225"/>
      <rect id="Rectangle_410" data-name="Rectangle 410" width="20" height="30" rx="10" transform="translate(436 563)" fill="#eceef0"/>
      <g id="Group_508" data-name="Group 508">
        <line id="Line_41" data-name="Line 41" y2="34" transform="translate(879 576)" fill="none" stroke="#d8dade" stroke-miterlimit="10" stroke-width="1.225"/>
        <rect id="Rectangle_411" data-name="Rectangle 411" width="20" height="30" rx="10" transform="translate(869 557)" fill="#e2e4e8"/>
      </g>
      <g id="Group_512" data-name="Group 512">
        <line id="Line_44" data-name="Line 44" y2="35" transform="translate(90 575)" fill="none" stroke="#d8dade" stroke-miterlimit="10" stroke-width="1.225"/>
        <rect id="Rectangle_413" data-name="Rectangle 413" width="40" height="40" rx="20" transform="translate(70 541)" fill="#eceef0"/>
      </g>
      <line id="Line_45" data-name="Line 45" y2="34" transform="translate(790 576)" fill="none" stroke="#d8dade" stroke-miterlimit="10" stroke-width="1.225"/>
      <g id="Group_510" data-name="Group 510">
        <line id="Line_46" data-name="Line 46" y2="35" transform="translate(811 575)" fill="none" stroke="#d8dade" stroke-miterlimit="10" stroke-width="1.225"/>
        <rect id="Rectangle_414" data-name="Rectangle 414" width="30" height="30" rx="15" transform="translate(796 549)" fill="#5cb876"/>
      </g>
      <line id="Line_47" data-name="Line 47" y2="38" transform="translate(394 572)" fill="none" stroke="#d8dade" stroke-miterlimit="10" stroke-width="1.225"/>
      <rect id="Rectangle_415" data-name="Rectangle 415" width="36" height="36" rx="18" transform="translate(376 545)" fill="#e2e4e8"/>
      <g id="Group_506" data-name="Group 506">
        <line id="Line_42" data-name="Line 42" y2="38" transform="translate(999 572)" fill="none" stroke="#d8dade" stroke-miterlimit="10" stroke-width="1.225"/>
        <line id="Line_43" data-name="Line 43" y2="30" transform="translate(978 580)" fill="none" stroke="#d8dade" stroke-miterlimit="10" stroke-width="1.574"/>
        <rect id="Rectangle_412" data-name="Rectangle 412" width="30" height="50" rx="15" transform="translate(984 524)" fill="#5cb876"/>
        <rect id="Rectangle_416" data-name="Rectangle 416" width="24" height="40" rx="12" transform="translate(966 550)" fill="#e2e4e8"/>
      </g>
      <line id="Line_48" data-name="Line 48" y2="36" transform="translate(183 574)" fill="none" stroke="#d8dade" stroke-miterlimit="10" stroke-width="1.225"/>
      <line id="Line_49" data-name="Line 49" y2="28" transform="translate(162 582)" fill="none" stroke="#d8dade" stroke-miterlimit="10" stroke-width="1.574"/>
      <rect id="Rectangle_417" data-name="Rectangle 417" width="30" height="50" rx="15" transform="translate(168 530)" fill="#5cb876"/>
      <rect id="Rectangle_418" data-name="Rectangle 418" width="24" height="40" rx="12" transform="translate(150 546)" fill="#eceef0"/>
      <line id="Line_50" data-name="Line 50" y2="38" transform="translate(311 572)" fill="#e2e4e8" stroke="#d8dade" stroke-miterlimit="10" stroke-width="1.225"/>
      <rect id="Rectangle_419" data-name="Rectangle 419" width="20" height="30" rx="10" transform="translate(301 559)" fill="#5cb876"/>
      <g id="Group_514" data-name="Group 514">
        <line id="Line_51" data-name="Line 51" y2="36" transform="translate(546 574)" fill="none" stroke="#d8dade" stroke-miterlimit="10" stroke-width="1.225"/>
        <line id="Line_52" data-name="Line 52" y2="28" transform="translate(525 582)" fill="none" stroke="#d8dade" stroke-miterlimit="10" stroke-width="1.574"/>
        <rect id="Rectangle_420" data-name="Rectangle 420" width="30" height="50" rx="15" transform="translate(531 530)" fill="#e2e4e8"/>
        <rect id="Rectangle_421" data-name="Rectangle 421" width="24" height="40" rx="12" transform="translate(513 546)" fill="#5cb876"/>
      </g>
      <line id="Line_53" data-name="Line 53" y2="38" transform="translate(674 572)" fill="none" stroke="#d8dade" stroke-miterlimit="10" stroke-width="1.225"/>
      <rect id="Rectangle_422" data-name="Rectangle 422" width="20" height="30" rx="10" transform="translate(664 559)" fill="#e2e4e8"/>
      <rect id="Rectangle_423" data-name="Rectangle 423" width="20" height="30" rx="10" transform="translate(780 563)" fill="#eceef0"/>
    </g>
    <g id="台中歌劇院">
      <path id="Rectangle_424" data-name="Rectangle 424" d="M4,0H66a4,4,0,0,1,4,4V104a0,0,0,0,1,0,0H0a0,0,0,0,1,0,0V4A4,4,0,0,1,4,0Z" transform="translate(1082 516)" fill="#e2e4e8"/>
      <path id="Rectangle_425" data-name="Rectangle 425" d="M4,0H96a4,4,0,0,1,4,4V104a0,0,0,0,1,0,0H0a0,0,0,0,1,0,0V4A4,4,0,0,1,4,0Z" transform="translate(1280 516)" fill="#e2e4e8"/>
      <path id="Union_4" data-name="Union 4" d="M290,94H0V22H80V0H290V22h80V94Z" transform="translate(1040 526)" fill="#eceef0"/>
      <path id="Path_28" data-name="Path 28" d="M1490,702H1120l-80-80h370Z" fill="url(#linear-gradient-3)"/>
      <rect id="Rectangle_428" data-name="Rectangle 428" width="370" height="2" transform="translate(1040 620)" fill="#fff"/>
      <g id="Path_30" data-name="Path 30" fill="#e2e4e8" stroke-miterlimit="10">
        <path d="M 1369.942993164062 621 L 1369.095947265625 621 L 1333.004028320312 621 L 1332.995971679688 621 L 1296.904052734375 621 L 1296.057006835938 621 L 1295.917724609375 620.1644287109375 C 1295.896362304688 620.0363159179688 1295.404174804688 616.9825439453125 1296.239990234375 613.1431274414062 C 1296.733276367188 610.8776245117188 1297.588745117188 608.8036499023438 1298.782836914062 606.9788818359375 C 1300.278198242188 604.693603515625 1302.30517578125 602.8031005859375 1304.807373046875 601.3598022460938 C 1317.364013671875 594.1168823242188 1316.460327148438 580.3864135742188 1316.151611328125 577.7074584960938 C 1315.518798828125 572.2132568359375 1313.0888671875 562.393798828125 1303.924072265625 558.3591918945312 C 1299.504028320312 556.4134521484375 1296.387329101562 554.3451538085938 1294.660522460938 552.2117309570312 C 1293.1611328125 550.3592529296875 1292.994750976562 548.8521118164062 1293 547.8795776367188 L 1293.000122070312 547.8604736328125 C 1293.004638671875 547.0082397460938 1293.0166015625 544.7445678710938 1294.704833984375 542.4125366210938 C 1296.755126953125 539.5802612304688 1300.492431640625 537.7291870117188 1305.812866210938 536.9105834960938 C 1310.727294921875 536.1543579101562 1314.325805664062 533.7423095703125 1316.508666992188 529.7415771484375 C 1318.146362304688 526.7398681640625 1318.334228515625 523.9661254882812 1318.3359375 523.9384765625 L 1318.393676757812 523 L 1319.333984375 523 L 1332.995971679688 523 L 1333.004028320312 523 L 1346.666015625 523 L 1347.606323242188 523 L 1347.6640625 523.9384765625 C 1347.665893554688 523.9649047851562 1347.868896484375 526.8040771484375 1349.5283203125 529.808837890625 C 1351.715576171875 533.7694091796875 1355.3017578125 536.1588134765625 1360.187133789062 536.91064453125 C 1365.507568359375 537.7291870117188 1369.244873046875 539.5802612304688 1371.295166015625 542.4125366210938 C 1372.9833984375 544.7445678710938 1372.995361328125 547.0082397460938 1372.999877929688 547.8604736328125 L 1373 547.8795776367188 C 1373.005249023438 548.8521118164062 1372.8388671875 550.3592529296875 1371.339477539062 552.2117309570312 C 1369.612670898438 554.3451538085938 1366.495971679688 556.4134521484375 1362.075927734375 558.3591918945312 C 1352.9111328125 562.393798828125 1350.481201171875 572.2132568359375 1349.848388671875 577.7073974609375 C 1349.539672851562 580.3864135742188 1348.635986328125 594.1168212890625 1361.192626953125 601.3598022460938 C 1363.69482421875 602.8031005859375 1365.721801757812 604.693603515625 1367.217163085938 606.9788818359375 C 1368.411254882812 608.8036499023438 1369.266723632812 610.8776245117188 1369.760009765625 613.1431274414062 C 1370.595825195312 616.9825439453125 1370.103637695312 620.0363159179688 1370.082275390625 620.1644287109375 L 1369.942993164062 621 Z" stroke="none"/>
        <path d="M 1319.333984375 524 C 1319.333984375 524 1318.597045898438 535.9550170898438 1305.964965820312 537.8989868164062 C 1293.991943359375 539.7410278320312 1294.008056640625 546.3989868164062 1294 547.885009765625 C 1293.991943359375 549.3699951171875 1294.400024414062 553.073974609375 1304.327026367188 557.4439697265625 C 1314.255981445312 561.8150024414062 1316.552001953125 572.4439697265625 1317.14501953125 577.593017578125 C 1317.444946289062 580.1959838867188 1318.441040039062 594.6500244140625 1305.307006835938 602.2260131835938 C 1294.93798828125 608.2069702148438 1296.904052734375 620 1296.904052734375 620 L 1369.095947265625 620 C 1369.095947265625 620 1371.06201171875 608.2069702148438 1360.692993164062 602.2260131835938 C 1347.558959960938 594.6500244140625 1348.555053710938 580.1959838867188 1348.85498046875 577.593017578125 C 1349.447998046875 572.4439697265625 1351.744018554688 561.8150024414062 1361.672973632812 557.4439697265625 C 1371.599975585938 553.073974609375 1372.008056640625 549.3699951171875 1372 547.885009765625 C 1371.991943359375 546.3989868164062 1372.008056640625 539.7410278320312 1360.035034179688 537.8989868164062 C 1347.402954101562 535.9550170898438 1346.666015625 524 1346.666015625 524 L 1319.333984375 524 M 1317.453491210938 522 L 1348.5615234375 522 L 1348.662109375 523.87353515625 C 1348.671752929688 523.998046875 1348.896240234375 526.6306762695312 1350.440063476562 529.3908081054688 C 1352.4736328125 533.02685546875 1355.80419921875 535.224365234375 1360.339233398438 535.9222412109375 C 1365.93359375 536.782958984375 1369.892333984375 538.769287109375 1372.105224609375 541.8260498046875 C 1373.981689453125 544.4181518554688 1373.995361328125 547.0050659179688 1373.999877929688 547.8551635742188 L 1374 547.8741455078125 C 1374.003540039062 548.5228271484375 1374.01416015625 550.4966430664062 1372.11669921875 552.8408813476562 C 1370.288696289062 555.0993041992188 1367.046020507812 557.2638549804688 1362.478759765625 559.2744750976562 C 1353.770751953125 563.1079711914062 1351.450073242188 572.5404663085938 1350.841796875 577.8218383789062 C 1350.545776367188 580.3919067382812 1349.677124023438 593.5629272460938 1361.692260742188 600.4935913085938 C 1366.433471679688 603.2283325195312 1369.561157226562 607.5289306640625 1370.737060546875 612.930419921875 C 1371.61328125 616.9553833007812 1371.09130859375 620.1930541992188 1371.068725585938 620.328857421875 L 1370.790161132812 622 L 1295.209838867188 622 L 1294.931274414062 620.328857421875 C 1294.90869140625 620.1930541992188 1294.38671875 616.9553833007812 1295.262939453125 612.930419921875 C 1296.438842773438 607.5289306640625 1299.566528320312 603.2283325195312 1304.307739257812 600.4935913085938 C 1316.322875976562 593.5629272460938 1315.454223632812 580.3919067382812 1315.158203125 577.8219604492188 C 1314.549926757812 572.5404663085938 1312.229248046875 563.1079711914062 1303.521240234375 559.2744140625 C 1298.953979492188 557.2638549804688 1295.711303710938 555.0993041992188 1293.88330078125 552.8408813476562 C 1291.98583984375 550.49658203125 1291.996459960938 548.5227661132812 1292 547.8741455078125 L 1292.000122070312 547.855224609375 C 1292.004638671875 547.005126953125 1292.018310546875 544.418212890625 1293.894775390625 541.8261108398438 C 1296.107666015625 538.769287109375 1300.066284179688 536.782958984375 1305.660888671875 535.9222412109375 C 1310.250732421875 535.2158813476562 1313.605224609375 532.9752807617188 1315.630859375 529.2625732421875 C 1317.138793945312 526.4988403320312 1317.336181640625 523.9024047851562 1317.337768554688 523.876953125 L 1317.453491210938 522 Z" stroke="none" fill="#fff"/>
      </g>
      <g id="Path_31" data-name="Path 31" fill="#e2e4e8" stroke-miterlimit="10">
        <path d="M 1153.942993164062 621 L 1153.095947265625 621 L 1117.004028320312 621 L 1116.995971679688 621 L 1080.904052734375 621 L 1080.057006835938 621 L 1079.917724609375 620.1644287109375 C 1079.896362304688 620.0363159179688 1079.404174804688 616.9825439453125 1080.239990234375 613.1431274414062 C 1080.733276367188 610.8776245117188 1081.588745117188 608.8036499023438 1082.782836914062 606.9788818359375 C 1084.278198242188 604.693603515625 1086.30517578125 602.8031005859375 1088.807373046875 601.3598022460938 C 1101.364013671875 594.1168823242188 1100.460327148438 580.3864135742188 1100.151611328125 577.7074584960938 C 1099.518798828125 572.2132568359375 1097.0888671875 562.393798828125 1087.924072265625 558.3591918945312 C 1083.504028320312 556.4134521484375 1080.387329101562 554.3451538085938 1078.660522460938 552.2117309570312 C 1077.1611328125 550.3592529296875 1076.994750976562 548.8521118164062 1077 547.8795776367188 L 1077.000122070312 547.8604736328125 C 1077.004638671875 547.0082397460938 1077.0166015625 544.7445678710938 1078.704833984375 542.4125366210938 C 1080.755126953125 539.5802612304688 1084.492431640625 537.7291870117188 1089.812866210938 536.9105834960938 C 1094.727294921875 536.1543579101562 1098.325805664062 533.7423095703125 1100.508666992188 529.7415771484375 C 1102.146362304688 526.7398681640625 1102.334228515625 523.9661254882812 1102.3359375 523.9384765625 L 1102.393676757812 523 L 1103.333984375 523 L 1116.995971679688 523 L 1117.004028320312 523 L 1130.666015625 523 L 1131.606323242188 523 L 1131.6640625 523.9384765625 C 1131.665893554688 523.9649047851562 1131.868896484375 526.8040771484375 1133.5283203125 529.808837890625 C 1135.715576171875 533.7694091796875 1139.3017578125 536.1588134765625 1144.187133789062 536.91064453125 C 1149.507568359375 537.7291870117188 1153.244873046875 539.5802612304688 1155.295166015625 542.4125366210938 C 1156.9833984375 544.7445678710938 1156.995361328125 547.0082397460938 1156.999877929688 547.8604736328125 L 1157 547.8795776367188 C 1157.005249023438 548.8521118164062 1156.8388671875 550.3592529296875 1155.339477539062 552.2117309570312 C 1153.612670898438 554.3451538085938 1150.495971679688 556.4134521484375 1146.075927734375 558.3591918945312 C 1136.9111328125 562.393798828125 1134.481201171875 572.2132568359375 1133.848388671875 577.7073974609375 C 1133.539672851562 580.3864135742188 1132.635986328125 594.1168212890625 1145.192626953125 601.3598022460938 C 1147.69482421875 602.8031005859375 1149.721801757812 604.693603515625 1151.217163085938 606.9788818359375 C 1152.411254882812 608.8036499023438 1153.266723632812 610.8776245117188 1153.760009765625 613.1431274414062 C 1154.595825195312 616.9825439453125 1154.103637695312 620.0363159179688 1154.082275390625 620.1644287109375 L 1153.942993164062 621 Z" stroke="none"/>
        <path d="M 1103.333984375 524 C 1103.333984375 524 1102.597045898438 535.9550170898438 1089.964965820312 537.8989868164062 C 1077.991943359375 539.7410278320312 1078.008056640625 546.3989868164062 1078 547.885009765625 C 1077.991943359375 549.3699951171875 1078.400024414062 553.073974609375 1088.327026367188 557.4439697265625 C 1098.255981445312 561.8150024414062 1100.552001953125 572.4439697265625 1101.14501953125 577.593017578125 C 1101.444946289062 580.1959838867188 1102.441040039062 594.6500244140625 1089.307006835938 602.2260131835938 C 1078.93798828125 608.2069702148438 1080.904052734375 620 1080.904052734375 620 L 1153.095947265625 620 C 1153.095947265625 620 1155.06201171875 608.2069702148438 1144.692993164062 602.2260131835938 C 1131.558959960938 594.6500244140625 1132.555053710938 580.1959838867188 1132.85498046875 577.593017578125 C 1133.447998046875 572.4439697265625 1135.744018554688 561.8150024414062 1145.672973632812 557.4439697265625 C 1155.599975585938 553.073974609375 1156.008056640625 549.3699951171875 1156 547.885009765625 C 1155.991943359375 546.3989868164062 1156.008056640625 539.7410278320312 1144.035034179688 537.8989868164062 C 1131.402954101562 535.9550170898438 1130.666015625 524 1130.666015625 524 L 1103.333984375 524 M 1101.453491210938 522 L 1132.5615234375 522 L 1132.662109375 523.87353515625 C 1132.671752929688 523.998046875 1132.896240234375 526.6306762695312 1134.440063476562 529.3908081054688 C 1136.4736328125 533.02685546875 1139.80419921875 535.224365234375 1144.339233398438 535.9222412109375 C 1149.93359375 536.782958984375 1153.892333984375 538.769287109375 1156.105224609375 541.8260498046875 C 1157.981689453125 544.4181518554688 1157.995361328125 547.0050659179688 1157.999877929688 547.8551635742188 L 1158 547.8741455078125 C 1158.003540039062 548.5228271484375 1158.01416015625 550.4966430664062 1156.11669921875 552.8408813476562 C 1154.288696289062 555.0993041992188 1151.046020507812 557.2638549804688 1146.478759765625 559.2744750976562 C 1137.770751953125 563.1079711914062 1135.450073242188 572.5404663085938 1134.841796875 577.8218383789062 C 1134.545776367188 580.3919067382812 1133.677124023438 593.5629272460938 1145.692260742188 600.4935913085938 C 1150.433471679688 603.2283325195312 1153.561157226562 607.5289306640625 1154.737060546875 612.930419921875 C 1155.61328125 616.9553833007812 1155.09130859375 620.1930541992188 1155.068725585938 620.328857421875 L 1154.790161132812 622 L 1079.209838867188 622 L 1078.931274414062 620.328857421875 C 1078.90869140625 620.1930541992188 1078.38671875 616.9553833007812 1079.262939453125 612.930419921875 C 1080.438842773438 607.5289306640625 1083.566528320312 603.2283325195312 1088.307739257812 600.4935913085938 C 1100.322875976562 593.5629272460938 1099.454223632812 580.3919067382812 1099.158203125 577.8219604492188 C 1098.549926757812 572.5404663085938 1096.229248046875 563.1079711914062 1087.521240234375 559.2744140625 C 1082.953979492188 557.2638549804688 1079.711303710938 555.0993041992188 1077.88330078125 552.8408813476562 C 1075.98583984375 550.49658203125 1075.996459960938 548.5227661132812 1076 547.8741455078125 L 1076.000122070312 547.855224609375 C 1076.004638671875 547.005126953125 1076.018310546875 544.418212890625 1077.894775390625 541.8261108398438 C 1080.107666015625 538.769287109375 1084.066284179688 536.782958984375 1089.660888671875 535.9222412109375 C 1094.250732421875 535.2158813476562 1097.605224609375 532.9752807617188 1099.630859375 529.2625732421875 C 1101.138793945312 526.4988403320312 1101.336181640625 523.9024047851562 1101.337768554688 523.876953125 L 1101.453491210938 522 Z" stroke="none" fill="#fff"/>
      </g>
      <g id="Path_85" data-name="Path 85" transform="translate(108)" fill="#ff4128" stroke-miterlimit="10">
        <path d="M 1153.942993164062 621 L 1153.095947265625 621 L 1117.004028320312 621 L 1116.995971679688 621 L 1080.904052734375 621 L 1080.057006835938 621 L 1079.917724609375 620.1644287109375 C 1079.896362304688 620.0363159179688 1079.404174804688 616.9825439453125 1080.239990234375 613.1431274414062 C 1080.733276367188 610.8776245117188 1081.588745117188 608.8036499023438 1082.782836914062 606.9788818359375 C 1084.278198242188 604.693603515625 1086.30517578125 602.8031005859375 1088.807373046875 601.3598022460938 C 1101.364013671875 594.1168823242188 1100.460327148438 580.3864135742188 1100.151611328125 577.7074584960938 C 1099.518798828125 572.2132568359375 1097.0888671875 562.393798828125 1087.924072265625 558.3591918945312 C 1083.504028320312 556.4134521484375 1080.387329101562 554.3451538085938 1078.660522460938 552.2117309570312 C 1077.1611328125 550.3592529296875 1076.994750976562 548.8521118164062 1077 547.8795776367188 L 1077.000122070312 547.8604736328125 C 1077.004638671875 547.0082397460938 1077.0166015625 544.7445678710938 1078.704833984375 542.4125366210938 C 1080.755126953125 539.5802612304688 1084.492431640625 537.7291870117188 1089.812866210938 536.9105834960938 C 1094.727294921875 536.1543579101562 1098.325805664062 533.7423095703125 1100.508666992188 529.7415771484375 C 1102.146362304688 526.7398681640625 1102.334228515625 523.9661254882812 1102.3359375 523.9384765625 L 1102.393676757812 523 L 1103.333984375 523 L 1116.995971679688 523 L 1117.004028320312 523 L 1130.666015625 523 L 1131.606323242188 523 L 1131.6640625 523.9384765625 C 1131.665893554688 523.9649047851562 1131.868896484375 526.8040771484375 1133.5283203125 529.808837890625 C 1135.715576171875 533.7694091796875 1139.3017578125 536.1588134765625 1144.187133789062 536.91064453125 C 1149.507568359375 537.7291870117188 1153.244873046875 539.5802612304688 1155.295166015625 542.4125366210938 C 1156.9833984375 544.7445678710938 1156.995361328125 547.0082397460938 1156.999877929688 547.8604736328125 L 1157 547.8795776367188 C 1157.005249023438 548.8521118164062 1156.8388671875 550.3592529296875 1155.339477539062 552.2117309570312 C 1153.612670898438 554.3451538085938 1150.495971679688 556.4134521484375 1146.075927734375 558.3591918945312 C 1136.9111328125 562.393798828125 1134.481201171875 572.2132568359375 1133.848388671875 577.7073974609375 C 1133.539672851562 580.3864135742188 1132.635986328125 594.1168212890625 1145.192626953125 601.3598022460938 C 1147.69482421875 602.8031005859375 1149.721801757812 604.693603515625 1151.217163085938 606.9788818359375 C 1152.411254882812 608.8036499023438 1153.266723632812 610.8776245117188 1153.760009765625 613.1431274414062 C 1154.595825195312 616.9825439453125 1154.103637695312 620.0363159179688 1154.082275390625 620.1644287109375 L 1153.942993164062 621 Z" stroke="none"/>
        <path d="M 1103.333984375 524 C 1103.333984375 524 1102.597045898438 535.9550170898438 1089.964965820312 537.8989868164062 C 1077.991943359375 539.7410278320312 1078.008056640625 546.3989868164062 1078 547.885009765625 C 1077.991943359375 549.3699951171875 1078.400024414062 553.073974609375 1088.327026367188 557.4439697265625 C 1098.255981445312 561.8150024414062 1100.552001953125 572.4439697265625 1101.14501953125 577.593017578125 C 1101.444946289062 580.1959838867188 1102.441040039062 594.6500244140625 1089.307006835938 602.2260131835938 C 1078.93798828125 608.2069702148438 1080.904052734375 620 1080.904052734375 620 L 1153.095947265625 620 C 1153.095947265625 620 1155.06201171875 608.2069702148438 1144.692993164062 602.2260131835938 C 1131.558959960938 594.6500244140625 1132.555053710938 580.1959838867188 1132.85498046875 577.593017578125 C 1133.447998046875 572.4439697265625 1135.744018554688 561.8150024414062 1145.672973632812 557.4439697265625 C 1155.599975585938 553.073974609375 1156.008056640625 549.3699951171875 1156 547.885009765625 C 1155.991943359375 546.3989868164062 1156.008056640625 539.7410278320312 1144.035034179688 537.8989868164062 C 1131.402954101562 535.9550170898438 1130.666015625 524 1130.666015625 524 L 1103.333984375 524 M 1101.453491210938 522 L 1132.5615234375 522 L 1132.662109375 523.87353515625 C 1132.671752929688 523.998046875 1132.896240234375 526.6306762695312 1134.440063476562 529.3908081054688 C 1136.4736328125 533.02685546875 1139.80419921875 535.224365234375 1144.339233398438 535.9222412109375 C 1149.93359375 536.782958984375 1153.892333984375 538.769287109375 1156.105224609375 541.8260498046875 C 1157.981689453125 544.4181518554688 1157.995361328125 547.0050659179688 1157.999877929688 547.8551635742188 L 1158 547.8741455078125 C 1158.003540039062 548.5228271484375 1158.01416015625 550.4966430664062 1156.11669921875 552.8408813476562 C 1154.288696289062 555.0993041992188 1151.046020507812 557.2638549804688 1146.478759765625 559.2744750976562 C 1137.770751953125 563.1079711914062 1135.450073242188 572.5404663085938 1134.841796875 577.8218383789062 C 1134.545776367188 580.3919067382812 1133.677124023438 593.5629272460938 1145.692260742188 600.4935913085938 C 1150.433471679688 603.2283325195312 1153.561157226562 607.5289306640625 1154.737060546875 612.930419921875 C 1155.61328125 616.9553833007812 1155.09130859375 620.1930541992188 1155.068725585938 620.328857421875 L 1154.790161132812 622 L 1079.209838867188 622 L 1078.931274414062 620.328857421875 C 1078.90869140625 620.1930541992188 1078.38671875 616.9553833007812 1079.262939453125 612.930419921875 C 1080.438842773438 607.5289306640625 1083.566528320312 603.2283325195312 1088.307739257812 600.4935913085938 C 1100.322875976562 593.5629272460938 1099.454223632812 580.3919067382812 1099.158203125 577.8219604492188 C 1098.549926757812 572.5404663085938 1096.229248046875 563.1079711914062 1087.521240234375 559.2744140625 C 1082.953979492188 557.2638549804688 1079.711303710938 555.0993041992188 1077.88330078125 552.8408813476562 C 1075.98583984375 550.49658203125 1075.996459960938 548.5227661132812 1076 547.8741455078125 L 1076.000122070312 547.855224609375 C 1076.004638671875 547.005126953125 1076.018310546875 544.418212890625 1077.894775390625 541.8261108398438 C 1080.107666015625 538.769287109375 1084.066284179688 536.782958984375 1089.660888671875 535.9222412109375 C 1094.250732421875 535.2158813476562 1097.605224609375 532.9752807617188 1099.630859375 529.2625732421875 C 1101.138793945312 526.4988403320312 1101.336181640625 523.9024047851562 1101.337768554688 523.876953125 L 1101.453491210938 522 Z" stroke="none" fill="#fff"/>
      </g>
    </g>
    <path id="Union_1" data-name="Union 1" d="M0,332l17-60H73l17,60Zm17-62L5,230H85L73,270Zm0-42L5,188H85L73,228Zm0-42L5,146H85L73,186Zm0-42L5,104H85L73,144Zm0-42L5,62H85L73,102ZM30,60V44h6l4-16h3V0h4V28h3l4,16h6V60Z" transform="translate(224 318)" fill="url(#linear-gradient-4)"/>
    <g id="Group_442" data-name="Group 442">
      <line id="Line_54" data-name="Line 54" y1="10" transform="translate(269 554)" fill="none" stroke="#fff" stroke-miterlimit="10" stroke-width="1"/>
      <line id="Line_55" data-name="Line 55" x2="16" transform="translate(261 554)" fill="none" stroke="#fff" stroke-miterlimit="10" stroke-width="1"/>
    </g>
    <g id="Group_443" data-name="Group 443">
      <line id="Line_56" data-name="Line 56" y1="10" transform="translate(269 512)" fill="none" stroke="#fff" stroke-miterlimit="10" stroke-width="1"/>
      <line id="Line_57" data-name="Line 57" x2="16" transform="translate(261 512)" fill="none" stroke="#fff" stroke-miterlimit="10" stroke-width="1"/>
    </g>
    <g id="Group_444" data-name="Group 444">
      <line id="Line_58" data-name="Line 58" y1="10" transform="translate(269 470)" fill="none" stroke="#fff" stroke-miterlimit="10" stroke-width="1"/>
      <line id="Line_59" data-name="Line 59" x2="16" transform="translate(261 470)" fill="none" stroke="#fff" stroke-miterlimit="10" stroke-width="1"/>
    </g>
    <g id="Group_445" data-name="Group 445">
      <line id="Line_60" data-name="Line 60" y1="10" transform="translate(269 428)" fill="none" stroke="#fff" stroke-miterlimit="10" stroke-width="1"/>
      <line id="Line_61" data-name="Line 61" x2="16" transform="translate(261 428)" fill="none" stroke="#fff" stroke-miterlimit="10" stroke-width="1"/>
    </g>
    <g id="Group_446" data-name="Group 446">
      <line id="Line_62" data-name="Line 62" y1="10" transform="translate(269 386)" fill="none" stroke="#fff" stroke-miterlimit="10" stroke-width="1"/>
      <line id="Line_63" data-name="Line 63" x2="16" transform="translate(261 386)" fill="none" stroke="#fff" stroke-miterlimit="10" stroke-width="1"/>
    </g>
    <path id="Path_46" data-name="Path 46" d="M154,810H64L224,650h90Z" fill="url(#linear-gradient-5)"/>
    <rect id="Rectangle_431" data-name="Rectangle 431" width="56" height="2" transform="translate(241 588)" fill="#fff"/>
    <rect id="Rectangle_432" data-name="Rectangle 432" width="56" height="2" transform="translate(241 546)" fill="#fff"/>
    <rect id="Rectangle_433" data-name="Rectangle 433" width="56" height="2" transform="translate(241 504)" fill="#fff"/>
    <rect id="Rectangle_434" data-name="Rectangle 434" width="56" height="2" transform="translate(241 462)" fill="#fff"/>
    <rect id="Rectangle_435" data-name="Rectangle 435" width="56" height="2" transform="translate(241 420)" fill="#fff"/>
    <rect id="Rectangle_436" data-name="Rectangle 436" width="30" height="2" transform="translate(254 378)" fill="#fff"/>
    <circle id="Ellipse_91" data-name="Ellipse 91" cx="12" cy="12" r="12" transform="translate(257 577)" fill="#fff"/>
    <circle id="Ellipse_92" data-name="Ellipse 92" cx="8" cy="8" r="8" transform="translate(261 581)" fill="#ff4128"/>
    <g id="Group_449" data-name="Group 449" transform="translate(0 -10)">
      <g id="Group_448" data-name="Group 448" clip-path="url(#clip-path)">
        <g id="Group_447" data-name="Group 447">
          <circle id="Ellipse_93" data-name="Ellipse 93" cx="32.5" cy="32.5" r="32.5" transform="translate(438 421)" fill="#f8f9fa"/>
          <circle id="Ellipse_94" data-name="Ellipse 94" cx="24" cy="24" r="24" transform="translate(418 439)" fill="#f8f9fa"/>
          <circle id="Ellipse_95" data-name="Ellipse 95" cx="29.5" cy="29.5" r="29.5" transform="translate(385 458)" fill="#f8f9fa"/>
          <circle id="Ellipse_96" data-name="Ellipse 96" cx="18" cy="18" r="18" transform="translate(489 447)" fill="#f8f9fa"/>
          <circle id="Ellipse_97" data-name="Ellipse 97" cx="20" cy="20" r="20" transform="translate(507 456)" fill="#f8f9fa"/>
        </g>
      </g>
    </g>
    <g id="Group_452" data-name="Group 452">
      <g id="Group_451" data-name="Group 451" clip-path="url(#clip-path-2)">
        <g id="Group_450" data-name="Group 450">
          <circle id="Ellipse_98" data-name="Ellipse 98" cx="59" cy="59" r="59" transform="translate(121 140)" fill="#f8f9fa"/>
          <circle id="Ellipse_99" data-name="Ellipse 99" cx="35.5" cy="35.5" r="35.5" transform="translate(87 196)" fill="#f8f9fa"/>
          <circle id="Ellipse_100" data-name="Ellipse 100" cx="34" cy="34" r="34" transform="translate(51 231)" fill="#f8f9fa"/>
          <circle id="Ellipse_101" data-name="Ellipse 101" cx="43.5" cy="43.5" r="43.5" transform="translate(202 184)" fill="#f8f9fa"/>
          <circle id="Ellipse_102" data-name="Ellipse 102" cx="58" cy="58" r="58" transform="translate(245 227)" fill="#f8f9fa"/>
        </g>
      </g>
    </g>
    <g id="Group_455" data-name="Group 455" transform="translate(-0.5 -0.5)">
      <g id="Group_454" data-name="Group 454" clip-path="url(#clip-path-3)">
        <g id="Group_453" data-name="Group 453">
          <circle id="Ellipse_103" data-name="Ellipse 103" cx="50" cy="50" r="50" transform="translate(1228.75 208.5)" fill="#f8f9fa"/>
          <circle id="Ellipse_104" data-name="Ellipse 104" cx="37.25" cy="37.25" r="37.25" transform="translate(1189 246)" fill="#f8f9fa"/>
          <circle id="Ellipse_105" data-name="Ellipse 105" cx="27.75" cy="27.75" r="27.75" transform="translate(1303.5 250)" fill="#f8f9fa"/>
          <circle id="Ellipse_106" data-name="Ellipse 106" cx="35.25" cy="35.25" r="35.25" transform="translate(1317.5 273.5)" fill="#f8f9fa"/>
          <circle id="Ellipse_107" data-name="Ellipse 107" cx="45.25" cy="45.25" r="45.25" transform="translate(1138 283)" fill="#f8f9fa"/>
        </g>
      </g>
    </g>
    <g id="Group_457" data-name="Group 457">
      <g id="Group_456" data-name="Group 456" clip-path="url(#clip-path-4)">
        <circle id="Ellipse_108" data-name="Ellipse 108" cx="40.75" cy="40.75" r="40.75" transform="translate(943 335.5)" fill="#f8f9fa"/>
        <circle id="Ellipse_109" data-name="Ellipse 109" cx="25.25" cy="25.25" r="25.25" transform="translate(912.5 361.5)" fill="#f8f9fa"/>
        <circle id="Ellipse_110" data-name="Ellipse 110" cx="27.75" cy="27.75" r="27.75" transform="translate(887 391)" fill="#f8f9fa"/>
        <circle id="Ellipse_111" data-name="Ellipse 111" cx="20.75" cy="20.75" r="20.75" transform="translate(1005 367.5)" fill="#f8f9fa"/>
        <circle id="Ellipse_112" data-name="Ellipse 112" cx="32" cy="32" r="32" transform="translate(1011.5 388.5)" fill="#f8f9fa"/>
      </g>
    </g>
    <path id="Path_55" data-name="Path 55" d="M820.43,599.58c.84,1.14,1.63,2.3,2.37,3.5A7.922,7.922,0,0,1,820.43,599.58Z" fill="#ffc250"/>
    <path id="Path_57" data-name="Path 57" d="M822.8,603.08a7.922,7.922,0,0,1-2.37-3.5C821.27,600.72,822.06,601.88,822.8,603.08Z" fill="#fbd976"/>
    <path id="Path_58" data-name="Path 58" d="M820.43,599.58c.84,1.14,1.63,2.3,2.37,3.5A7.922,7.922,0,0,1,820.43,599.58Z" fill="#fbd976"/>
    <path id="Path_59" data-name="Path 59" d="M822.8,603.08a7.922,7.922,0,0,1-2.37-3.5C821.27,600.72,822.06,601.88,822.8,603.08Z" fill="#fbd976"/>
    <circle id="Ellipse_54" data-name="Ellipse 54" cx="7" cy="7" r="7" transform="translate(573 694)" fill="#fff"/>
    <g id="Group_499" data-name="Group 499" transform="translate(0 -20)">
      <g id="Group_493" data-name="Group 493">
        <path id="Union_5" data-name="Union 5" d="M2,40a2.006,2.006,0,0,1-2-2V26a2.006,2.006,0,0,1,2-2H6.5L13,0H75a2.006,2.006,0,0,1,2,2V38a2.006,2.006,0,0,1-2,2Z" transform="translate(1186 666)" fill="#e2e4e8" stroke="rgba(0,0,0,0)" stroke-miterlimit="10" stroke-width="1"/>
        <circle id="Ellipse_119" data-name="Ellipse 119" cx="5" cy="5" r="5" transform="translate(1196 701)" fill="#646973"/>
        <circle id="Ellipse_120" data-name="Ellipse 120" cx="5" cy="5" r="5" transform="translate(1243 701)" fill="#646973"/>
        <path id="Union_11" data-name="Union 11" d="M-25.5,30V10h8V30ZM-30,30l4.5-20V30Z" transform="translate(1226.5 660)" fill="#bec3c8" stroke="rgba(0,0,0,0)" stroke-miterlimit="10" stroke-width="1"/>
        <rect id="Rectangle_461" data-name="Rectangle 461" width="15" height="20" transform="translate(1213 670)" fill="#bec3c8"/>
        <rect id="Rectangle_470" data-name="Rectangle 470" width="15" height="20" transform="translate(1232 670)" fill="#bec3c8"/>
        <path id="Rectangle_463" data-name="Rectangle 463" d="M0,0H5A0,0,0,0,1,5,0V6A0,0,0,0,1,5,6H2A2,2,0,0,1,0,4V0A0,0,0,0,1,0,0Z" transform="translate(1186 700)" fill="#bec3c8"/>
      </g>
      <path id="Path_90" data-name="Path 90" d="M487.5,738h-62L395,714h-4.5a6.917,6.917,0,0,1-4-2l-12-12c-1.1-1.1-1.1-2,0-2h8c-2.761-2.761-2.761-5,0-5s7.239,2.239,10,5h37c-2.761-2.761-2.761-5,0-5s7.239,2.239,10,5h8a6.917,6.917,0,0,1,4,2l36,36C488.6,737.1,488.6,738,487.5,738Z" transform="translate(818.325 18)" fill="url(#linear-gradient-6)"/>
    </g>
    <path id="Path_91" data-name="Path 91" d="M374.5,738h62L467,714h4.5a6.917,6.917,0,0,0,4-2l12-12c1.1-1.1,1.1-2,0-2h-8c2.761-2.761,2.761-5,0-5s-7.239,2.239-10,5h-37c2.761-2.761,2.761-5,0-5s-7.239,2.239-10,5h-8a6.917,6.917,0,0,0-4,2l-36,36C373.4,737.1,373.4,738,374.5,738Z" transform="translate(-49.675 9)" fill="url(#linear-gradient-6)"/>
    <g id="Group_495" data-name="Group 495" transform="translate(3 9)">
      <path id="Union_9" data-name="Union 9" d="M-1,28a2,2,0,0,1-2-2V14a2,2,0,0,1,2-2H7V-9H61l6.5,21H75a2,2,0,0,1,2,2V26a2,2,0,0,1-2,2ZM1.5,12,7-9V12Z" transform="translate(368 660)" fill="#fbd976" stroke="rgba(0,0,0,0)" stroke-miterlimit="10" stroke-width="1"/>
      <path id="Union_8" data-name="Union 8" d="M20,8H-3V-9H20L24.5,8Z" transform="translate(407 664)" fill="#646973" stroke="rgba(0,0,0,0)" stroke-miterlimit="10" stroke-width="1"/>
      <path id="Union_7" data-name="Union 7" d="M.5,8V-9h21V8ZM-3,8,.5-9V8Z" transform="translate(378.5 664)" fill="#646973" stroke="rgba(0,0,0,0)" stroke-miterlimit="10" stroke-width="1"/>
      <rect id="Rectangle_469" data-name="Rectangle 469" width="4" height="5" transform="translate(404 651) rotate(180)" fill="#bec3c8"/>
      <circle id="Ellipse_121" data-name="Ellipse 121" cx="5" cy="5" r="5" transform="translate(422 683)" fill="#646973"/>
      <circle id="Ellipse_122" data-name="Ellipse 122" cx="5" cy="5" r="5" transform="translate(375 683)" fill="#646973"/>
      <path id="Rectangle_483" data-name="Rectangle 483" d="M0,0H5A0,0,0,0,1,5,0V4A2,2,0,0,1,3,6H0A0,0,0,0,1,0,6V0A0,0,0,0,1,0,0Z" transform="translate(440 682)" fill="#ffc250"/>
    </g>
    <g id="Group_498" data-name="Group 498" transform="translate(-66 -4)">
      <g id="Group_497" data-name="Group 497" transform="translate(-1142 -36)">
        <path id="Union_5-2" data-name="Union 5" d="M2,0A2.006,2.006,0,0,0,0,2V14a2.006,2.006,0,0,0,2,2H6.5L13,40H75a2.006,2.006,0,0,0,2-2V2a2.006,2.006,0,0,0-2-2Z" transform="translate(1263 706) rotate(180)" fill="#e2e4e8" stroke="rgba(0,0,0,0)" stroke-miterlimit="10" stroke-width="1"/>
        <circle id="Ellipse_119-2" data-name="Ellipse 119" cx="5" cy="5" r="5" transform="translate(1243 701)" fill="#646973"/>
        <circle id="Ellipse_120-2" data-name="Ellipse 120" cx="5" cy="5" r="5" transform="translate(1196 701)" fill="#646973"/>
        <path id="Union_10" data-name="Union 10" d="M1216,60h-8V40h8l4.5,20Z" transform="translate(32 630)" fill="#bec3c8" stroke="rgba(0,0,0,0)" stroke-miterlimit="10" stroke-width="1"/>
        <rect id="Rectangle_461-2" data-name="Rectangle 461" width="15" height="20" transform="translate(1221 670)" fill="#bec3c8"/>
        <rect id="Rectangle_470-2" data-name="Rectangle 470" width="15" height="20" transform="translate(1202 670)" fill="#bec3c8"/>
        <path id="Rectangle_463-2" data-name="Rectangle 463" d="M0,0H5A0,0,0,0,1,5,0V4A2,2,0,0,1,3,6H0A0,0,0,0,1,0,6V0A0,0,0,0,1,0,0Z" transform="translate(1258 700)" fill="#bec3c8"/>
      </g>
      <path id="Path_96" data-name="Path 96" d="M374.5,738h62L467,714h4.5a6.917,6.917,0,0,0,4-2l12-12c1.1-1.1,1.1-2,0-2h-8c2.761-2.761,2.761-5,0-5s-7.239,2.239-10,5h-37c2.761-2.761,2.761-5,0-5s-7.239,2.239-10,5h-8a6.917,6.917,0,0,0-4,2l-36,36C373.4,737.1,373.4,738,374.5,738Z" transform="translate(-373.675 -18)" fill="url(#linear-gradient-6)"/>
    </g>
    <g id="Group_509" data-name="Group 509" transform="translate(228 92)">
      <line id="Line_41-2" data-name="Line 41" y2="34" transform="translate(879 576)" fill="none" stroke="#d8dade" stroke-miterlimit="10" stroke-width="1.225"/>
      <rect id="Rectangle_411-2" data-name="Rectangle 411" width="20" height="30" rx="10" transform="translate(869 557)" fill="#e2e4e8"/>
    </g>
    <g id="Group_513" data-name="Group 513" transform="translate(268 72)">
      <line id="Line_44-2" data-name="Line 44" y2="35" transform="translate(90 575)" fill="none" stroke="#d8dade" stroke-miterlimit="10" stroke-width="1.225"/>
      <rect id="Rectangle_413-2" data-name="Rectangle 413" width="40" height="40" rx="20" transform="translate(70 541)" fill="#eceef0"/>
    </g>
    <g id="Group_517" data-name="Group 517" transform="translate(-6 47)">
      <g id="Group_516" data-name="Group 516" transform="translate(145 70)">
        <line id="Line_46-2" data-name="Line 46" y2="35" transform="translate(811 575)" fill="none" stroke="#d8dade" stroke-miterlimit="10" stroke-width="1.225"/>
        <rect id="Rectangle_414-2" data-name="Rectangle 414" width="30" height="30" rx="15" transform="translate(796 549)" fill="#5cb876"/>
      </g>
      <line id="Line_80" data-name="Line 80" y2="34" transform="translate(935 646)" fill="none" stroke="#d8dade" stroke-miterlimit="10" stroke-width="1.225"/>
      <rect id="Rectangle_484" data-name="Rectangle 484" width="20" height="30" rx="10" transform="translate(925 633)" fill="#eceef0"/>
    </g>
  </g>
</svg>
