<svg xmlns="http://www.w3.org/2000/svg" xmlns:xlink="http://www.w3.org/1999/xlink" width="1440" height="900" viewBox="0 0 1440 900">
  <defs>
    <clipPath id="clip-path">
      <path id="Path_47" data-name="Path 47" d="M542,579l13.4,50H588.6L602,579H542Z" fill="none"/>
    </clipPath>
    <linearGradient id="linear-gradient" x1="0.5" x2="0.5" y2="1" gradientUnits="objectBoundingBox">
      <stop offset="0" stop-color="#eceef0"/>
      <stop offset="1" stop-color="#eceef0" stop-opacity="0"/>
    </linearGradient>
    <clipPath id="clip-banner-2">
      <rect width="1440" height="900"/>
    </clipPath>
  </defs>
  <g id="banner-2" clip-path="url(#clip-banner-2)">
    <g id="Group_520" data-name="Group 520">
      <g id="Group_521" data-name="Group 521">
        <g id="Group_519" data-name="Group 519">
          <g id="Group_460" data-name="Group 460">
            <g id="Group_459" data-name="Group 459" clip-path="url(#clip-path)">
              <g id="Group_458" data-name="Group 458">
                <line id="Line_64" data-name="Line 64" x2="13.882" y2="155.62" transform="translate(554.559 501.19)" fill="none" stroke="#bec3c8" stroke-width="2"/>
                <line id="Line_65" data-name="Line 65" x1="13.882" y2="155.62" transform="translate(575.559 501.19)" fill="none" stroke="#bec3c8" stroke-width="2"/>
                <line id="Line_66" data-name="Line 66" x2="103" transform="translate(527 619)" fill="none" stroke="#bec3c8" stroke-width="2"/>
                <line id="Line_67" data-name="Line 67" x2="103" transform="translate(527 609)" fill="none" stroke="#bec3c8" stroke-width="2"/>
                <line id="Line_68" data-name="Line 68" x2="103" transform="translate(527 599)" fill="none" stroke="#bec3c8" stroke-width="2"/>
                <line id="Line_69" data-name="Line 69" x2="103" transform="translate(527 589)" fill="none" stroke="#bec3c8" stroke-width="2"/>
              </g>
            </g>
          </g>
          <g id="Group_461" data-name="Group 461">
            <line id="Line_70" data-name="Line 70" x1="70.711" y2="70.711" transform="translate(544.645 665.645)" fill="none" stroke="#e2e4e8" stroke-miterlimit="10" stroke-width="2"/>
            <line id="Line_71" data-name="Line 71" x1="96.593" y1="25.882" transform="translate(531.704 688.059)" fill="none" stroke="#e2e4e8" stroke-miterlimit="10" stroke-width="2"/>
            <line id="Line_72" data-name="Line 72" x1="25.882" y1="96.593" transform="translate(567.059 652.704)" fill="none" stroke="#e2e4e8" stroke-miterlimit="10" stroke-width="2"/>
          </g>
          <g id="Group_462" data-name="Group 462">
            <line id="Line_73" data-name="Line 73" x1="45.255" y2="45.255" transform="translate(820.373 698.373)" fill="none" stroke="#e2e4e8" stroke-miterlimit="10" stroke-width="2"/>
            <line id="Line_74" data-name="Line 74" x1="61.819" y1="16.564" transform="translate(812.09 712.718)" fill="none" stroke="#e2e4e8" stroke-miterlimit="10" stroke-width="2"/>
            <line id="Line_75" data-name="Line 75" x1="16.564" y1="61.819" transform="translate(834.718 690.09)" fill="none" stroke="#e2e4e8" stroke-miterlimit="10" stroke-width="2"/>
          </g>
          <path id="Path_48" data-name="Path 48" d="M843,681a40,40,0,1,0,40,40A40,40,0,0,0,843,681Zm0,72a32,32,0,1,1,32-32A32,32,0,0,1,843,753Z" fill="#646973"/>
          <circle id="Ellipse_55" data-name="Ellipse 55" cx="10" cy="10" r="10" transform="translate(833 711)" fill="#bec3c8"/>
          <circle id="Ellipse_55-2" data-name="Ellipse 55" cx="6" cy="6" r="6" transform="translate(837 715)" fill="#fff"/>
          <path id="Path_49" data-name="Path 49" d="M840.5,704.5c7-8,11-18,26-13a64,64,0,0,0,7.479,2.063,2,2,0,0,0,1.882-3.3,45,45,0,0,0-76.5,19.748,2.008,2.008,0,0,0,1.947,2.494H819.5S833.5,712.5,840.5,704.5Z" fill="#ffcb00"/>
          <rect id="Rectangle_442" data-name="Rectangle 442" width="2" height="9" rx="1" transform="translate(875 681)" fill="#ff8c34"/>
          <path id="Path_50" data-name="Path 50" d="M875,682v8H861V680h12A2.006,2.006,0,0,1,875,682Z" fill="#ffcb00"/>
          <path id="Path_51" data-name="Path 51" d="M781.489,683.882l-8.282,30.91a8,8,0,0,1-9.8,5.657l-13.523-3.624a8,8,0,0,1-5.657-9.8l8.282-30.909Z" fill="#ffc250"/>
          <path id="Path_52" data-name="Path 52" d="M781.489,676.118l8.282,30.909a8,8,0,0,1-5.657,9.8l-13.523,3.624a8,8,0,0,1-9.8-5.657l-8.282-30.91Z" fill="#fbd976"/>
          <path id="Path_53" data-name="Path 53" d="M601.325,581.518l-12.325,46A2,2,0,0,1,587.068,629H556.932A2,2,0,0,1,555,627.518l-12.325-46A2,2,0,0,1,544.606,579h54.788A2,2,0,0,1,601.325,581.518Z" fill="none" stroke="#8c919b" stroke-miterlimit="10" stroke-width="2"/>
          <path id="Path_54" data-name="Path 54" d="M639.5,582.99l-27.713-16a8,8,0,0,1-2.928-10.928l7-12.124a8,8,0,0,1,10.928-2.928l27.713,16Z" fill="#ffc250"/>
          <path id="Path_56" data-name="Path 56" d="M832,635a60,60,0,0,1-60,60H732A100,100,0,0,1,632,595V460a65,65,0,0,1,65-65h10a65,65,0,0,1,65,65V575a59.9,59.9,0,0,1,48.43,24.58,7.922,7.922,0,0,0,2.37,3.5.01.01,0,0,1,.01.01,58.973,58.973,0,0,1,6.62,14.52A59.772,59.772,0,0,1,832,635Z" fill="#fbd976"/>
          <g id="Group_463" data-name="Group 463" transform="translate(-1)">
            <circle id="Ellipse_28" data-name="Ellipse 28" cx="3" cy="3" r="3" transform="translate(643 419)" fill="#fff"/>
            <rect id="Rectangle_89" data-name="Rectangle 89" width="6" height="3" transform="translate(643 419)" fill="#fff"/>
          </g>
          <g id="Group_464" data-name="Group 464">
            <circle id="Ellipse_25" data-name="Ellipse 25" cx="3" cy="3" r="3" transform="translate(632 411)" fill="#fff"/>
            <circle id="Ellipse_26" data-name="Ellipse 26" cx="3" cy="3" r="3" transform="translate(654 411)" fill="#fff"/>
            <rect id="Rectangle_88" data-name="Rectangle 88" width="22" height="6" transform="translate(635 411)" fill="#fff"/>
          </g>
          <g id="Group_465" data-name="Group 465">
            <line id="Line_76" data-name="Line 76" x1="4" y2="4" transform="translate(666 416)" fill="none" stroke="#ff8c34" stroke-linecap="round" stroke-width="2"/>
            <line id="Line_77" data-name="Line 77" x1="4" y2="4" transform="translate(671 416)" fill="none" stroke="#ff8c34" stroke-linecap="round" stroke-width="2"/>
            <line id="Line_78" data-name="Line 78" x1="4" y2="4" transform="translate(676 416)" fill="none" stroke="#ff8c34" stroke-linecap="round" stroke-width="2"/>
          </g>
          <g id="Group_466" data-name="Group 466">
            <path id="Path_60" data-name="Path 60" d="M822.121,700a4.465,4.465,0,0,1-3.309-1.413,3.435,3.435,0,0,1-.881-1.949c-.019-.176.2-.378.308-.568.13.13.333.24.379.4a3.5,3.5,0,0,0,2.005,2.458,4.745,4.745,0,0,0,3.721-.125,5.08,5.08,0,0,0,2.945-2.924,4.164,4.164,0,0,0,.2-2.424c-.076-.336.009-.55.307-.639.358-.107.5.191.565.445a4.516,4.516,0,0,1-.175,2.964,6.133,6.133,0,0,1-4.338,3.485C823.284,699.85,822.7,699.9,822.121,700Z" fill="#5d8a4c"/>
            <path id="Path_61" data-name="Path 61" d="M838.015,692.405c-.177.531-.314,1.021-.51,1.487-.073.176-.283.3-.43.441-.122-.149-.312-.281-.354-.45a7.945,7.945,0,0,1,.18-3.439c.022-.112.234-.189.357-.282.09.127.252.251.256.38a10.408,10.408,0,0,0,.012,1.1c.32-.606.619-1.225.975-1.81.092-.151.364-.194.553-.287.015.214.1.461.029.636-.223.517-.512,1-.782,1.518a5.8,5.8,0,0,0,2.56.766,2.571,2.571,0,0,1,.673.1c.163.071.27.268.4.409-.155.091-.324.277-.464.258a9.272,9.272,0,0,1-3.157-.7C838.24,692.49,838.16,692.464,838.015,692.405Z" fill="#5d8a4c"/>
            <path id="Path_62" data-name="Path 62" d="M831.506,693.39a5.735,5.735,0,0,0,.555-.17,1.122,1.122,0,0,1,1.321.074c.452.429.239.94.027,1.385a5.086,5.086,0,0,1-1.631,1.822.493.493,0,0,1-.818-.366,13.02,13.02,0,0,1-.243-1.912,24.692,24.692,0,0,1,.23-2.7c.014-.123.233-.222.358-.333.094.134.268.267.269.4C831.58,692.173,831.535,692.752,831.506,693.39Zm.1,2.167.189.021c.5-.5,1.073-.953,1.108-1.757-.315-.065-1.249.206-1.279.424A9.717,9.717,0,0,0,831.607,695.557Z" fill="#5d8a4c"/>
            <path id="Path_63" data-name="Path 63" d="M842.071,691a2.314,2.314,0,0,0,2.143-.037c.382-.145.714-.42,1.091-.585a.682.682,0,0,1,.576-.009c.261.233.043.427-.175.568a4.472,4.472,0,0,1-3.242.96,5.991,5.991,0,0,1-1.325-.546.314.314,0,0,1-.127-.166,2.109,2.109,0,0,1,1.034-2.489c.25-.1.72-.109.841.039a1.252,1.252,0,0,1,.154.931,2.308,2.308,0,0,1-.492.78C842.409,690.634,842.241,690.8,842.071,691Zm-.422-.992.224.17.535-.706-.2-.156Z" fill="#5d8a4c"/>
            <path id="Path_64" data-name="Path 64" d="M827.827,690.732c-.234.033-.538.067-.839.119a.832.832,0,0,1-.915-.405,1.043,1.043,0,0,1,0-1.206,3.209,3.209,0,0,1,1.868-1.2c.369-.094.788-.032.92.346a1.431,1.431,0,0,1-.056.981,5.008,5.008,0,0,1-.722.881A2.989,2.989,0,0,0,827.827,690.732Zm-1.1-1.764a.918.918,0,0,0-.494,1.256.539.539,0,0,0,.719.345Zm.837,1.068a3.743,3.743,0,0,0,.419-.6c.026-.061-.125-.2-.194-.3a4.86,4.86,0,0,0-.436.508C827.332,689.69,827.45,689.826,827.569,690.036Z" fill="#5d8a4c"/>
            <path id="Path_65" data-name="Path 65" d="M817.994,694.282a3.216,3.216,0,0,1-.838.124,1.554,1.554,0,0,1-.87-.313.917.917,0,0,1-.147-1.15,2.651,2.651,0,0,1,2.178-1.314,1.03,1.03,0,0,1,.718.395.732.732,0,0,1-.081.944c-.226.274-.472.531-.686.812A3.4,3.4,0,0,0,817.994,694.282Zm-.7-.233a1.333,1.333,0,0,1-.288-1.561,1.084,1.084,0,0,0-.67,1.267A.693.693,0,0,0,817.294,694.049Zm.373-.438a4.1,4.1,0,0,0,.436-.605c.025-.053-.129-.189-.2-.287a6.579,6.579,0,0,0-.437.525C817.441,693.278,817.545,693.4,817.667,693.611Z" fill="#5d8a4c"/>
            <path id="Path_66" data-name="Path 66" d="M835.536,694.736c-.1.09-.2.254-.33.28a.416.416,0,0,1-.35-.207,7.227,7.227,0,0,1-.183-.91c-.091-.484-.208-.966-.262-1.455-.017-.158.13-.334.2-.5.157.1.424.178.454.307C835.249,693.046,835.377,693.856,835.536,694.736Z" fill="#5d8a4c"/>
            <path id="Path_67" data-name="Path 67" d="M834.386,691.227c-.394,0-.656-.2-.633-.579s.388-.484.7-.473c.362.012.485.3.485.632C834.937,691.181,834.674,691.226,834.386,691.227Z" fill="#5d8a4c"/>
          </g>
          <circle id="Ellipse_54" data-name="Ellipse 54" cx="12" cy="12" r="12" transform="translate(568 689)" fill="#bec3c8"/>
          <line id="Line_79" data-name="Line 79" x1="211" transform="translate(632 721)" fill="none" stroke="#ff8c34" stroke-linecap="round" stroke-linejoin="round" stroke-width="6"/>
          <path id="Path_68" data-name="Path 68" d="M580,641a60,60,0,1,0,60,60A60,60,0,0,0,580,641Zm0,110a50,50,0,1,1,50-50A50,50,0,0,1,580,751Z" fill="#646973"/>
          <path id="Path_69" data-name="Path 69" d="M642,704a65,65,0,0,0-65-65" fill="none" stroke="#ffcb00" stroke-linecap="round" stroke-linejoin="round" stroke-width="8"/>
          <circle id="Ellipse_54-2" data-name="Ellipse 54" cx="7" cy="7" r="7" transform="translate(573 694)" fill="#fff"/>
          <path id="Path_70" data-name="Path 70" d="M580,701l31.058-115.911-10.51-14.51h25.941" fill="none" stroke="#ff8c34" stroke-linecap="round" stroke-linejoin="round" stroke-width="6"/>
          <path id="Path_71" data-name="Path 71" d="M647,605H615a8,8,0,0,1-8-8V583a8,8,0,0,1,8-8h32Z" fill="#fbd976"/>
          <path id="Path_72" data-name="Path 72" d="M699.524,382.327l-17.861,16.911,20.673,7.524Z" fill="#fbd976"/>
          <path id="Union_3" data-name="Union 3" d="M236.857,231.249c-31.439-3.585-60.343-20.336-67.673-40.477L149.8,137.521l-4.519,1.907c-3.318,1.4-8.51.57-11.6-1.856l-9.8-7.684c-3.093-2.426-2.911-5.526.407-6.926l2.385-1.006h-13.99a3.258,3.258,0,0,1-2.033-.692c-.5-.424-.619-.934-.319-1.319l5.5-7.067c-.008-.021-.02-.041-.027-.062l-2.193-6.026L91.238,78.343a97.1,97.1,0,0,1-17.423,1.515c-2.209,0-4.413-1.135-4.922-2.535a1.481,1.481,0,0,1,.219-1.472C38.188,73.87,8.747,57.693,1.589,38.028-6.054,17.025,14.612,0,47.75,0c25.367,0,50.675,9.983,64.584,24.084H279.565C275.727,10.672,289.328,0,310.749,0c22.091,0,44.131,11.35,49.227,25.352,2.515,6.912.425,13.175-4.99,17.748.815-.14,1.591-.264,2.3-.359,1.805-.242,3.639,1.2,2.643,2.094-.121.109-.253.211-.377.318a1.042,1.042,0,0,1,.576-.154,1.344,1.344,0,0,1,1.231.634l1.615,4.437c.128.35-.218.634-.77.634a1.346,1.346,0,0,1-1.231-.634c.255.7-.437,1.267-1.538,1.267H347.988a57.949,57.949,0,0,1-17.631,2.535c-21.059,0-42.068-9.17-51.48-21.553-.61-.8.068-1.58,1.371-1.58h2.6a23.987,23.987,0,0,1-2.362-4.119H253.436L262.053,28c4.533.725,8.077,3.5,7.917,6.209l-.511,8.689c27.8,4.02,52.831,19.037,59.355,36.962a24,24,0,0,1,1.442,11.021,20.847,20.847,0,0,1-.547,2.948c4.132.257,8.07,2.417,9.027,5.045,1.019,2.8-1.736,5.07-6.155,5.07a13.616,13.616,0,0,1-6.954-1.916c-.072.094-.137.188-.211.281-7.474,9.444-22.871,15.578-42.761,15.578l26.529,72.887c8.281,22.753-14.106,41.2-50.006,41.2h-6.017L254.626,240ZM115.681,119.42h17l3.635-1.535H125.655a13.527,13.527,0,0,1-7.176-2.058ZM126.9,36.126c7.02,19.285-6.818,35.683-32.1,41.481l18.3,23.267c1.02-1.215,3.033-2,5.631-2h17.5c-6.64-32.029,26.888-57.042,78.743-57.042h15.451l-6-7.623c-2.129-2.705-.609-5.485,3.4-6.209l7.614-1.379H114.686a40.327,40.327,0,0,1,5.139,7.451,4.5,4.5,0,0,1,2.15-.48C124.185,33.591,126.388,34.726,126.9,36.126ZM73.124,69.717a72.3,72.3,0,0,0,10.715-.778L63.507,43.1l-.071,0a13.5,13.5,0,0,1-1.62-.1L60.3,68.718A84.649,84.649,0,0,0,73.124,69.717ZM60.055,68.679,59.54,68.6ZM16.524,46.535c8.558,10.66,24.854,19.053,42.754,22.018L60.79,42.831a11.473,11.473,0,0,1-6.19-3.188Zm50.606-4.1L87.471,68.293c7.116-1.511,13.019-4.164,17.348-7.639L68.26,41.826A5.821,5.821,0,0,1,67.13,42.439Zm1.936-5.414a4.513,4.513,0,0,1,.523,1,3.008,3.008,0,0,1-.787,3.351l36.56,18.828c6.761-5.717,9.371-13.542,6.227-22.179a29.662,29.662,0,0,0-4.45-7.9Zm-52.7,9.319-.12-.152Zm-4.779-8.315a29.709,29.709,0,0,0,4.451,7.9l38.073-6.892a4.614,4.614,0,0,1-.524-1,3.012,3.012,0,0,1,.787-3.351L17.817,15.849C11.057,21.565,8.446,29.391,11.589,38.028Zm347.68,7.362.089.243a.368.368,0,0,1,.093-.4C359.392,45.288,359.33,45.339,359.269,45.39Zm-39.348-10.3c.464.228.92.465,1.361.717,5.758,3.3,10.443,7.136,16.828,8.539a25.484,25.484,0,0,0,9.431-4.437l-20.9-10.761a8.448,8.448,0,0,1-4.824,1.272,13.494,13.494,0,0,1-1.619-.1Zm7.532-10.744a4.634,4.634,0,0,1,.523,1,3.01,3.01,0,0,1-.787,3.35l20.9,10.761c4.255-3.651,5.889-8.626,3.892-14.111a18.89,18.89,0,0,0-2.761-4.943ZM62.391,33.224a11.467,11.467,0,0,1,6.189,3.188l38.075-6.892C98.1,18.86,81.8,10.467,63.9,7.5Zm229.758-2.486h6.288s11.708,0,20.476,3.882l.262-4.465a11.468,11.468,0,0,1-6.188-3.189ZM18.361,15.4l36.56,18.828a8.453,8.453,0,0,1,4.824-1.272,13.52,13.52,0,0,1,1.62.1L62.877,7.338a84.553,84.553,0,0,0-12.822-1C36.428,6.338,25.34,9.8,18.361,15.4Zm272.7,15.3-.313-.4C290.847,30.439,290.953,30.571,291.058,30.7Zm-.322-.409,20.3-3.675H288.507A19.806,19.806,0,0,0,290.736,30.294Zm-183.75-.36-.175-.223Zm180.6-5.85h24.194A3.053,3.053,0,0,1,312.764,22l-20.9-10.761C287.942,14.607,286.255,19.1,287.583,24.084Zm33.194-3.535a11.463,11.463,0,0,1,6.189,3.187L348.729,19.8c-5.471-6.733-15.767-12.037-27.088-13.95Zm-28.366-9.757,20.9,10.761a8.447,8.447,0,0,1,4.823-1.273,13.147,13.147,0,0,1,1.62.1l.865-14.7a54.053,54.053,0,0,0-8.021-.61C303.937,5.07,296.883,7.253,292.411,10.792Zm56.8,9.6c-.1-.132-.208-.265-.313-.4ZM63.64,7.458l-.3-.048ZM321.3,5.789c-.22-.036-.442-.073-.665-.106ZM93.055,115.984H54.571a5.062,5.062,0,0,1-2.651-.744,1.986,1.986,0,0,1-1.118-1.65l.251-4.261.037-.634.335-5.7.038-.634.336-5.7.037-.634.336-5.7.037-.633.308-5.246c.049-.83,1.03-1.409,2.385-1.409H85.036a4.561,4.561,0,0,1,3.41,1.409l4.127,5.246.5.633,4.487,5.7.5.634,4.487,5.7.5.634,4.487,5.7.5.634,3.352,4.261a1.228,1.228,0,0,1,.083,1.65,2.744,2.744,0,0,1-2.109.744Zm-.639-1.268H108.9a.918.918,0,0,0,.7-.247.41.41,0,0,0-.027-.551l-3.611-4.589H89.7Zm-20.822,0H91.411l-2.719-5.387h-18.3Zm-18.741-.8a.668.668,0,0,0,.373.551,1.7,1.7,0,0,0,.883.247H70.59l-1.2-5.387H53.123Zm36.524-5.224h16.086l-4.487-5.7H86.5Zm-19.127,0H88.372l-2.878-5.7H68.976Zm-17.09,0H69.245l-1.273-5.7H53.5Zm33.018-6.338h14.3l-4.487-5.7H83.3Zm-17.343,0H85.173l-2.879-5.7H67.561Zm-15.3,0h14.3l-1.273-5.7H53.868Zm29.446-6.338H95.489L91,90.315H80.1Zm-15.559,0H81.975l-2.879-5.7H66.146Zm-13.513,0H66.416l-1.274-5.7H54.24ZM79.78,89.682H90.5l-3.869-4.919a1.518,1.518,0,0,0-1.137-.47H77.061Zm-13.774,0h12.77l-2.719-5.388H64.8ZM54.566,84.764l-.289,4.919H65l-1.2-5.388H55.362C54.91,84.294,54.582,84.487,54.566,84.764Z" transform="translate(530 761)" fill="url(#linear-gradient)"/>
        </g>
        <g id="Group_467" data-name="Group 467">
          <path id="Path_73" data-name="Path 73" d="M696.875,386.683l-10.768,12.043,6.578,2.394Z" fill="#ffc250"/>
        </g>
      </g>
    </g>
  </g>
</svg>
